<svg xmlns="http://www.w3.org/2000/svg" xmlns:xlink="http://www.w3.org/1999/xlink" width="940" height="382.48" viewBox="0 0 940 382.48">
  <defs>
    <linearGradient id="d89a9b53-9106-476d-a699-6e0e664ab7a8" x1="177.85" y1="155.88" x2="177.85" y2="195.89" gradientUnits="userSpaceOnUse">
      <stop offset="0" stop-color="#9e684d"/>
      <stop offset="0.19" stop-color="#a67053"/>
      <stop offset="0.62" stop-color="#b37e5c"/>
      <stop offset="1" stop-color="#b7835f"/>
    </linearGradient>
    <linearGradient id="3db08792-fa43-44d8-89c6-ab2e5e49a728" x1="271.04" y1="301.59" x2="278.45" y2="242.68" gradientUnits="userSpaceOnUse">
      <stop offset="0" stop-color="#b7835f"/>
      <stop offset="0.12" stop-color="#ab7656"/>
      <stop offset="0.29" stop-color="#a16b4f"/>
      <stop offset="0.48" stop-color="#9e684d"/>
      <stop offset="0.68" stop-color="#a46f51"/>
      <stop offset="0.98" stop-color="#b5815e"/>
      <stop offset="1" stop-color="#b7835f"/>
    </linearGradient>
    <linearGradient id="d69069ec-cb2f-454c-876d-4e5a9d7606b4" x1="180.76" y1="238.7" x2="119.15" y2="171.65" xlink:href="#d89a9b53-9106-476d-a699-6e0e664ab7a8"/>
    <linearGradient id="6742cf3c-cc97-430e-a9be-d867265e8e31" x1="186.69" y1="244.03" x2="125.94" y2="198.03" gradientUnits="userSpaceOnUse">
      <stop offset="0" stop-color="#150773"/>
      <stop offset="1" stop-color="#5333ed"/>
    </linearGradient>
    <linearGradient id="3ed109c3-18ea-473b-afa3-4726ad10e68b" x1="151.21" y1="112.29" x2="194.58" y2="234.25" xlink:href="#3db08792-fa43-44d8-89c6-ab2e5e49a728"/>
    <linearGradient id="2b3feb0e-b420-417c-a6d0-08075344db33" x1="187.93" y1="69.21" x2="184.48" y2="60.35" gradientTransform="translate(59.13 -84.62) rotate(30)" gradientUnits="userSpaceOnUse">
      <stop offset="0" stop-color="#5333ed"/>
      <stop offset="1" stop-color="#2cd4d9"/>
    </linearGradient>
    <linearGradient id="01cb3c66-9855-451e-91fc-12773ff46bb0" x1="210.82" y1="56.87" x2="207.37" y2="48.02" gradientTransform="translate(55.66 -97.68) rotate(30)" xlink:href="#2b3feb0e-b420-417c-a6d0-08075344db33"/>
    <linearGradient id="46abfa2d-0195-4706-b965-49d9869227c1" x1="180.67" y1="150.82" x2="162.34" y2="97.32" xlink:href="#d89a9b53-9106-476d-a699-6e0e664ab7a8"/>
  </defs>
  <title>kinsta-vs-others-woo-commerce</title>
  <g id="31dbf7ec-aa96-4f7c-88b3-9a2fe2c6373f" data-name="figures and interactions">
    <g>
      <circle cx="94.4" cy="177.1" r="3" style="fill: none;stroke: #bbd0f2;stroke-miterlimit: 10"/>
      <line x1="276.74" y1="177.1" x2="97.4" y2="177.1" style="fill: none;stroke: #bbd0f2;stroke-miterlimit: 10"/>
      <polyline points="394.47 223.78 378.35 214.48 81.66 214.49" style="fill: none;stroke: #2cd4d9;stroke-miterlimit: 10;opacity: 0.8"/>
      <circle cx="50.24" cy="223.78" r="3" style="fill: none;stroke: #2cd4d9;stroke-miterlimit: 10;opacity: 0.8"/>
      <circle cx="78.65" cy="214.48" r="3" style="fill: none;stroke: #2cd4d9;stroke-miterlimit: 10;opacity: 0.8"/>
      <line x1="404.13" y1="223.78" x2="53.24" y2="223.78" style="fill: none;stroke: #2cd4d9;stroke-miterlimit: 10;opacity: 0.8"/>
      <g style="opacity: 0.8">
        <polygon points="610.25 224.48 610.25 297.21 547.26 333.58 547.26 260.85 610.25 224.48" style="fill: none;stroke: #5333ed;stroke-miterlimit: 10"/>
        <polygon points="547.26 260.85 526.26 248.72 526.26 321.46 547.26 333.58 547.26 260.85" style="fill: none;stroke: #5333ed;stroke-miterlimit: 10"/>
        <polygon points="610.25 224.48 589.25 212.35 526.26 248.72 547.26 260.85 610.25 224.48" style="fill: none;stroke: #5333ed;stroke-miterlimit: 10"/>
        <polyline points="535.84 327.01 535.84 254.28 598.83 217.91" style="fill: none;stroke: #5333ed;stroke-miterlimit: 10"/>
        <polyline points="560.39 229.13 581.39 241.25 581.39 313.99" style="fill: none;stroke: #5333ed;stroke-miterlimit: 10"/>
        <polyline points="526.25 285.26 547.28 297.31 610.16 260.75" style="fill: none;stroke: #5333ed;stroke-miterlimit: 10"/>
      </g>
      <polyline points="281.18 193.35 281.18 158.84 368.1 108.3 697.24 108.3" style="fill: none;stroke: #bbd0f2;stroke-miterlimit: 10"/>
      <polyline points="447.13 163.09 563.93 163.09 600.73 141.86 658.89 141.88" style="fill: none;stroke: #bbd0f2;stroke-miterlimit: 10"/>
      <polyline points="288.53 186.03 288.53 163.09 419.34 163.09" style="fill: none;stroke: #bbd0f2;stroke-miterlimit: 10"/>
      <circle cx="661.89" cy="141.86" r="3" style="fill: none;stroke: #bbd0f2;stroke-miterlimit: 10"/>
      <circle cx="276.95" cy="128.35" r="3" style="fill: none;stroke: #bbd0f2;stroke-miterlimit: 10"/>
      <circle cx="743.41" cy="185.2" r="3" style="fill: none;stroke: #bbd0f2;stroke-miterlimit: 10"/>
      <circle cx="671.05" cy="248.72" r="3" style="fill: none;stroke: #5333ed;stroke-miterlimit: 10;opacity: 0.8"/>
      <circle cx="700.24" cy="108.3" r="3" style="fill: none;stroke: #bbd0f2;stroke-miterlimit: 10"/>
      <polyline points="328.41 163.09 366.71 185.2 404.13 185.2" style="fill: none;stroke: #bbd0f2;stroke-miterlimit: 10"/>
      <line x1="485.47" y1="185.2" x2="740.4" y2="185.2" style="fill: none;stroke: #bbd0f2;stroke-miterlimit: 10"/>
      <g>
        <circle cx="549.75" cy="141.86" r="3" style="fill: none;stroke: #bbd0f2;stroke-miterlimit: 10"/>
        <circle cx="374.82" cy="141.86" r="3" style="fill: none;stroke: #bbd0f2;stroke-miterlimit: 10"/>
        <line x1="377.82" y1="141.86" x2="546.75" y2="141.86" style="fill: none;stroke: #bbd0f2;stroke-miterlimit: 10"/>
      </g>
      <line x1="610.25" y1="248.72" x2="668.05" y2="248.72" style="fill: none;stroke: #5333ed;stroke-miterlimit: 10;opacity: 0.8"/>
      <circle cx="643.07" cy="282.03" r="3" style="fill: none;stroke: #5333ed;stroke-miterlimit: 10;opacity: 0.8"/>
      <line x1="610.25" y1="282.03" x2="640.07" y2="282.03" style="fill: none;stroke: #5333ed;stroke-miterlimit: 10;opacity: 0.8"/>
      <polyline points="643.07 248.72 659.19 258.02 706.38 258.01" style="fill: none;stroke: #5333ed;stroke-miterlimit: 10;opacity: 0.8"/>
      <circle cx="709.39" cy="258.02" r="3" style="fill: none;stroke: #5333ed;stroke-miterlimit: 10;opacity: 0.8"/>
      <polyline points="530.75 185.2 567.69 206.51 675.83 206.49" style="fill: none;stroke: #bbd0f2;stroke-miterlimit: 10"/>
      <circle cx="678.84" cy="206.51" r="3" style="fill: none;stroke: #bbd0f2;stroke-miterlimit: 10"/>
      <circle cx="324.86" cy="243.23" r="3" style="fill: none;stroke: #2cd4d9;stroke-miterlimit: 10;opacity: 0.8"/>
      <line x1="404.13" y1="243.23" x2="327.86" y2="243.23" style="fill: none;stroke: #2cd4d9;stroke-miterlimit: 10;opacity: 0.8"/>
      <g>
        <polygon points="404.13 171.84 404.13 272.57 491.36 322.94 491.36 222.21 404.13 171.84" style="fill: none;stroke: #2cd4d9;stroke-miterlimit: 10;opacity: 0.8"/>
        <polygon points="491.36 222.21 520.44 205.42 520.44 306.15 491.36 322.94 491.36 222.21" style="fill: none;stroke: #2cd4d9;stroke-miterlimit: 10"/>
        <polygon points="404.13 171.84 433.21 155.05 520.44 205.42 491.36 222.21 404.13 171.84" style="fill: none;stroke: #2cd4d9;stroke-miterlimit: 10"/>
        <path d="M495.1,191V160.34c0-12.81-9-28.39-20.08-34.79h0c-11.09-6.4-20.08-1.21-20.08,11.6v30.67" style="fill: none;stroke: #2cd4d9;stroke-miterlimit: 10"/>
        <path d="M466,207.8V177.13c0-12.81-9-28.39-20.08-34.79h0c-11.09-6.4-20.08-1.21-20.08,11.6v30.67" style="fill: none;stroke: #2cd4d9;stroke-miterlimit: 10"/>
      </g>
      <line x1="276.95" y1="191.16" x2="276.95" y2="131.36" style="fill: none;stroke: #bbd0f2;stroke-miterlimit: 10"/>
    </g>
    <g>
      <circle cx="159.04" cy="144.93" r="32.81" style="fill: #ffc398"/>
      <path d="M267.12,225.57,277,256.83s12.94,34.43-7.6,40.58c-6.51,1.95-14.91-17-17.87-27.75-2.41-8.78-11.14-33.32-11.14-33.32Z" style="fill: #b7835f"/>
      <path d="M267.89,228l6.41,20.22A30,30,0,0,1,264,257.65a28.74,28.74,0,0,1-15,4.2c-1.68-6.7-5.17-15.15-7.47-20.38,2.67-.95,6.48-1.84,10.67-4.26C258,233.85,263.62,229.66,267.89,228Z" style="fill: #7c4e2e"/>
      <path d="M251.82,233c9.78-5.64,19-13.64,22.21-8,.34.6,2,9.23,2.12,9.9s.13,1.27.22,1.9c0,5.41-4.95,12.14-12.75,16.64-9.78,5.64-20.34,5.64-23.6,0a7,7,0,0,1-.5-1.07c-.12-.41-2.08-9.82-2.19-10.23C236.32,236.56,243.29,238,251.82,233Z" style="fill: #5333ed;opacity: 0.5"/>
      <g>
        <path d="M135.69,318.94h0a25.32,25.32,0,0,1-6.85-5.58c-3.63-4.27-2.39-11.44-2.69-15.31-2.07-27.23-7.86-53.46-13-72.42a46.24,46.24,0,0,1,23.24-53.25l1.29-.63c17.83-8.41,46.8-24,66.56-31.3a84.91,84.91,0,0,1,17-3.84,38.46,38.46,0,0,1,36.37,51s-30.25,47.62-33.33,65.8c-.28,1.66-.85,5.19-.46,7.24,6.08,15.19-7.8,37.91-32.52,52.18C171.92,324,152.47,326,139.34,320.73,138.54,318.78,137.33,318,135.69,318.94Z" style="fill: #5333ed"/>
        <path d="M135.9,318.83c1.54-.79,2.67,0,3.44,1.9a30.61,30.61,0,0,1-3.7-1.78Z" style="fill: #5333ed"/>
        <path d="M126,311.67q-.13-.94-.22-1.9A8,8,0,0,1,126,311.67Z" style="fill: #5333ed"/>
      </g>
      <path d="M250,224c9.78-5.64,20.34-5.64,23.6,0a7,7,0,0,1,.73,1.9q.08,1,.22,1.9c0,5.41-4.95,12.14-12.75,16.64-9.78,5.64-20.34,5.64-23.6,0a7,7,0,0,1-.5-1.07c-.12-.41-.22-.82-.34-1.23C236.32,236.56,241.43,229,250,224Z" style="fill: #5333ed"/>
      <polygon points="258.09 164.01 273.57 224.03 237.67 243.4 227.31 205.03 258.09 164.01" style="fill: #5333ed"/>
      <path d="M233.82,229.14l11.9-21.86s1.22,2.12-.84,6.05c-2.19,4.19-7.72,16.94-8.06,26.9Z" style="fill: #120667"/>
      <g>
        <path d="M194.34,223.06c2.11-4.79,6.77-9.78,13.13-13.46a38.64,38.64,0,0,1,6.53-3,138.09,138.09,0,0,0-2.14-19.22c-5.19-24-15-39.29-33.93-30.48L160,162.14s-14.82,6.74-3.95,34.24c3.09,7.83,6,19.15,8.49,33.77a38.57,38.57,0,0,1,6-4.25C179.52,220.7,189.12,219.75,194.34,223.06Z" style="fill: #b7835f"/>
        <path d="M214.83,235.45c-.08-10.14-.32-20.2-.83-28.85a38.64,38.64,0,0,0-6.53,3c-6.37,3.68-11,8.67-13.13,13.46-5.21-3.31-14.82-2.36-23.83,2.84a38.57,38.57,0,0,0-6,4.25q1.78,10.63,3.15,23.58a648.36,648.36,0,0,1,3.18,67s20.66-3.15,43.06-26.58C213.93,294.15,215,264.43,214.83,235.45Z" style="fill: #0c022f"/>
        <path d="M214.39,198.6c-5.11-12-15.95-34.19-29.19-41.71" style="fill: none;stroke: #0c022f;stroke-linecap: round;stroke-miterlimit: 10;stroke-width: 2px"/>
        <path d="M177,158.44c24.83-8,35.86,33.52,34.87,28.94-5.19-24-15-39.29-33.93-30.48L160,162.14s-14.82,6.74-3.95,34.24c2.58,6.53-9.36-19.83,6.06-33.81C165.18,159.79,171.65,160.15,177,158.44Z" style="fill: #7c4e2e"/>
      </g>
      <circle cx="182.18" cy="108.31" r="35.38" style="fill: #ffc398"/>
      <path d="M156.64,201.55c-.73-16.15-.49-33.73,3.36-39.41" style="fill: none;stroke: #0c022f;stroke-linecap: round;stroke-miterlimit: 10;stroke-width: 2px"/>
      <path d="M154.67,192.6s1.62,5.12,4.15,11.87l-4.15,2.81L152.06,199Z" style="fill: #5333ed"/>
      <path id="1974da10-f173-4171-b217-e98a084abaae" data-name="&lt;Path&gt;" d="M159.2,172.38,159,131.91l37.65-.15,0,55.22C196.54,199.16,164.75,188.39,159.2,172.38Z" style="fill: url(#d89a9b53-9106-476d-a699-6e0e664ab7a8)"/>
      <path id="9ae6785a-10a6-476c-b2e4-060c48207ed9" data-name="&lt;Path&gt;" d="M159.06,145c4.52,9,15,14.64,23.78,16.12,4.82.81,9.82,1.57,13.82.5l0-24L159,134.84Z" style="fill: #7c4e2e"/>
      <path d="M158.45,120.91l-2.28-28.74h54.3s5.25,36.31-4.66,58.11h0c-.12.27-.26.54-.41.8-4.48,7.75-19,7.75-32.41,0a32.33,32.33,0,0,1-15.56-20.78c-.28-1.3,1.48-1,1.57-2.18.11-1.53-2.21-5.11-2.21-5.11A9.64,9.64,0,0,1,158.45,120.91Z" style="fill: #b7835f"/>
      <path d="M151.5,121.34a14.51,14.51,0,0,0,4.79,12.22c3.27,2.61,6.43,1.37,7.05-2.77a14.51,14.51,0,0,0-4.79-12.22C155.28,116,152.13,117.2,151.5,121.34Z" style="fill: #b7835f"/>
      <ellipse cx="158.46" cy="125.64" rx="1.53" ry="2.65" style="fill: #b7835f"/>
      <path d="M159,123.18s-2.28-2.07-3.9-3.51c-.87-.77-2.2,1.43-1.33,4.41.3,1,1.13,4.92,3.42,6.85,0,0,.62.54.54,0-.17-1.2.71-1.12.55-1.83a2.76,2.76,0,0,0-.64-1.2s-.67-.46-.75-2.27S158,123,158.46,123A1,1,0,0,1,159,123.18Z" style="fill: #7c4e2e"/>
      <path d="M201.24,136.61c.42,1.85-1.85,2.45-4.67,2.12l-.93-15.33a.38.38,0,0,1,.73-.16C197.91,127.25,200.93,135.23,201.24,136.61Z" style="fill: #9e684d"/>
      <path d="M190.56,117.3a.9.9,0,0,1-1.19.54,24.67,24.67,0,0,0-9.81-1.93,22.09,22.09,0,0,0-6.12,1.31l.31-2.3a30.86,30.86,0,0,1,9.19-1,20.05,20.05,0,0,1,7.31,1.44l.14.81.09-.72.63.25Z" style="fill: #5b3427"/>
      <path d="M198.8,116.76a.66.66,0,0,0,1.1.35,13.74,13.74,0,0,1,5.44-3.2,21.75,21.75,0,0,1,5.22-.75v-1.06a10,10,0,0,0-6.73-.18c-1.2.33-3.41,1-4.47,2.44l0,1.33-.28-1.17-.66.28Z" style="fill: #5b3427"/>
      <path d="M205.68,96.09S194,115.64,162.32,123.9L160,119.34l42.43-30.8Z" style="fill: #7c4e2e"/>
      <path d="M211.86,115.52s-.05-10.45-8.55-23.35c0,0-14.61,23.9-42.18,29.38a23.94,23.94,0,0,0-3.18-3.42l-4-9.42.71-18.62,44.53-7,11,6.06,4.19,20.33Z" style="fill: #ffc398"/>
      <path d="M204.54,89.28s-2,14.49-20.34,27.37l-.72-.11a52.8,52.8,0,0,0,17.64-21.12l-.27-1.72Z" style="fill: #ffc398"/>
      <path d="M199.64,143.86a1,1,0,0,1-.19,1.86,16.48,16.48,0,0,1-6.09.34,14.5,14.5,0,0,1-6.42-1.92,29.61,29.61,0,0,0,6-.18c1.08-.29,3.14-.52,4.13.21A3.22,3.22,0,0,1,199.64,143.86Z" style="fill: #7c4e2e"/>
      <path d="M174.44,121.29s5,5.22,14.54,3C189,124.28,182.54,117.64,174.44,121.29Z" style="fill: #fff"/>
      <path d="M187.33,123.73a1.7,1.7,0,0,1-.26.91s-.66.1-1.31.14c-.83.05-1.44,0-1.44,0a1.71,1.71,0,1,1,3-1.1Z" style="fill: #0c022f"/>
      <path d="M189,123.73s-6.22-5.2-14-2.56" style="fill: none;stroke: #0c022f;stroke-linecap: round;stroke-linejoin: round;stroke-width: 1.34470964266571px"/>
      <path d="M210.64,116.66s-2.32,5.47-10.27,6.56C200.37,123.22,203.36,116.24,210.64,116.66Z" style="fill: #fff"/>
      <path d="M205.32,120.15a1.75,1.75,0,0,0,1.14,1.06l2.25-1.83a1.76,1.76,0,1,0-3.39.77Z" style="fill: #0c022f"/>
      <path d="M200.2,122.8s3.25-5.81,10-6.08" style="fill: none;stroke: #0c022f;stroke-linecap: round;stroke-linejoin: round;stroke-width: 1.10384676872233px"/>
      <path d="M181.25,124.62a13.36,13.36,0,0,1-6.65-3.23" style="fill: none;stroke: #0c022f;stroke-linecap: round;stroke-linejoin: round;stroke-width: 0.5px"/>
      <path d="M210.37,117.06a11.62,11.62,0,0,1-4.07,4.09" style="fill: none;stroke: #0c022f;stroke-linecap: round;stroke-linejoin: round;stroke-width: 0.5px"/>
      <path d="M212.35,190s1,7.27,1.31,11.59l5.35-3.92-4.15-9.42Z" style="fill: #5333ed"/>
      <path d="M271.09,243s-2.47,14.06-4,21.07-6,12.05-4.56,23.11c2.06,15.76,12.19,18.68,19.69,1.79,4.78-10.76,4.34-23.93,2.25-47.13C284.5,241.87,277.81,229.51,271.09,243Z" style="fill: url(#3db08792-fa43-44d8-89c6-ab2e5e49a728)"/>
      <g id="d5484fea-5194-49af-894a-31377ada9023" data-name="&lt;Group&gt;">
        <path id="c79a0de7-ce97-4faa-9413-fd5d69b2966f" data-name="&lt;Path&gt;" d="M283.56,236.93s-14.66,4.47-12.87.11c2.67-6.5-.45-9.3-.94-13.83a35.7,35.7,0,0,1,.45-9.5l-1-10.18s5.14.33,4.95,8.81l9,13.09Z" style="fill: #9e684d"/>
        <g>
          <polygon points="269.38 185.56 256.81 238.04 260.19 240.08 282.69 223.11 298.62 172.57 295.17 170.57 269.38 185.56" style="fill: #43414e"/>
          <polygon points="272.75 187.5 260.19 240.08 286.07 225.15 298.62 172.57 272.75 187.5" style="fill: #6e7075"/>
          <path d="M280.34,189.4,275.9,192c-.89.51-1.61,0-1.61-1.22h0a3.85,3.85,0,0,1,1.61-3.07l4.43-2.56c.89-.51,1.61,0,1.61,1.22h0A3.85,3.85,0,0,1,280.34,189.4Z" style="fill: #43414e"/>
          <path d="M277.51,188.88a2.75,2.75,0,0,1-1.24,2.15c-.69.4-1.24.07-1.24-.72a2.75,2.75,0,0,1,1.24-2.15C277,187.77,277.51,188.09,277.51,188.88Z" style="fill: #6e7075"/>
          <path d="M276.78,189.3a1.14,1.14,0,0,1-.52.89c-.29.16-.52,0-.52-.3a1.14,1.14,0,0,1,.52-.89C276.55,188.84,276.78,189,276.78,189.3Z" style="fill: #43414e"/>
        </g>
        <path id="9628be4e-61e0-4bfb-ad3b-79bca8493492" data-name="&lt;Path&gt;" d="M258.61,208.09l11.31-1.81a2,2,0,0,1,.83,0l15,4.11-6.64-6.89a36.12,36.12,0,0,1-5,1.34c-2.23.29-3.66-.05-4.45-.75a1,1,0,0,1,.33-1.6l9.23-3.12a2,2,0,0,1,1.86.33l9.51,7.71a7.13,7.13,0,0,1,1.7,2.49,25.79,25.79,0,0,1,2.37,12c-1.89,15.06-10.67,22.74-16,24.49a6.67,6.67,0,0,1-8.35-3.66q-.11-.29-.2-.6c-.51-1.76-.12-5.85,2.61-7.62,3.53-2.29,6.9-6.73,5.16-7.95L269.72,222a22.88,22.88,0,0,1-4-.15,4.27,4.27,0,0,1-2.39-1.31.53.53,0,0,1,.28-.87l5.69-1.28a2,2,0,0,1,.93,0L281,221.34l-12.15-6.06s-2.62-.43-8.68-2a4.22,4.22,0,0,1-3.45-3.26.53.53,0,0,1,.62-.58l11.79,2,.24.06,13.53,4.07-13.76-5.77s-8.77,1.69-10.86-.87A.53.53,0,0,1,258.61,208.09Z" style="fill: #b7835f"/>
      </g>
      <g>
        <path d="M178.22,195.05l-.46,0c4.41,5.55,7.28,14.54,7.28,24.7,0,16.59-7.64,30.07-17.16,30.5,2.91,3.66,6.48,5.82,10.35,5.82,9.73,0,17.62-13.66,17.62-30.52S188,195.05,178.22,195.05Z" style="fill: #5333ed;opacity: 0.5"/>
        <path d="M185,219.77c0-10.16-2.87-19.15-7.28-24.7-9.52.42-17.16,13.91-17.16,30.5,0,10.16,2.87,19.15,7.28,24.7C177.39,249.84,185,236.36,185,219.77Z" style="fill: #5333ed;opacity: 0.5"/>
        <path d="M185,219.77c0-10.16-2.87-19.15-7.28-24.7-9.52.42-17.16,13.91-17.16,30.5,0,10.16,2.87,19.15,7.28,24.7C177.39,249.84,185,236.36,185,219.77Z" style="fill: #120667"/>
      </g>
      <path d="M196.68,215.79c-1.49,4.53-14.7,19.76-71.26,1.76,0,0-5.8,1.07-9.13-13.84s11.85-18,11.85-18l36.4,8.08S198.16,211.26,196.68,215.79Z" style="fill: url(#d69069ec-cb2f-454c-876d-4e5a9d7606b4)"/>
      <path d="M166.8,226s-2.69-13.86,5.35-26.09l-2.37-12.56-11.63-4.12-13.93,39.42S159.65,226.23,166.8,226Z" style="fill: #7c4e2e"/>
      <path d="M177.85,195.09c-2.91-3.66-6.48-5.82-10.35-5.82-9.73,0-17.62,13.66-17.62,30.52s7.89,30.52,17.62,30.52l.46,0c-4.41-5.55-7.28-14.54-7.28-24.7C160.69,209,168.33,195.52,177.85,195.09Z" style="fill: #5333ed;opacity: 0.5"/>
      <path d="M137.67,171.75s-36.88,8.13-22.45,61.9c0,0,21.24,14.42,52.28,16.66,0,0-9.45.7-15-14.36s-1.43-35.28,7-43.34,18.35,2.49,18.35,2.49l-5.09-5.34Z" style="fill: url(#6742cf3c-cc97-430e-a9be-d867265e8e31)"/>
      <path d="M165.08,122.51s12.51,30.12,21.83,47.77c9,17,12,37,9.77,45.51-2.62,9.93-22.23,15.93-32.14-22-4.3-16.45-6.51-36.9-14.21-66.53Z" style="fill: url(#3ed109c3-18ea-473b-afa3-4726ad10e68b)"/>
      <path d="M174.54,255.42a17.43,17.43,0,0,1-6.58-5.13c-5.12-6.81-7.28-14.54-7.28-24.7L150,224c.9,11.39,5.42,19.83,10.81,24.61A47.5,47.5,0,0,0,174.54,255.42Z" style="fill: #3c368e;opacity: 0.5"/>
      <g id="c2416c00-c61c-4ff6-89bc-250600b42606" data-name="&lt;Group&gt;">
        <path id="b3a59618-5015-4028-8d6b-a9683fde4955" data-name="&lt;Path&gt;" d="M153.23,124.81s13.39,9.38,13,4.36c-.56-7.47,3.52-9.28,5.52-13.71a38.06,38.06,0,0,0,2.68-9.78l4.33-10s-5.32-1.36-7.92,7.3l-13.47,10.29Z" style="fill: #9e684d"/>
        <g>
          <path d="M177.23,110.33s-1.59-3.11-.74-8.52L181.3,74.7l-3.46-3.87-3.44,34.62a15.21,15.21,0,0,0,2.1,7.62c.15.25.23.48.61.48C177.89,113.55,178.21,112.72,177.23,110.33Z" style="fill: #18a0aa"/>
          <path d="M176.85,110.32s-1.59-3.11-.74-8.52l4.82-27.11-3.46-3.87L174,105.44a15.21,15.21,0,0,0,2.1,7.62,1.09,1.09,0,0,0,.89.49C177.79,113.55,177.83,112.71,176.85,110.32Z" style="fill: #2cd4d9"/>
          <path d="M216.63,87.69s-1.59-3.11-.74-8.52l4.82-27.11-3.46-3.87-3.44,34.62a15.21,15.21,0,0,0,2.1,7.62c.15.25.23.48.61.48C217.3,90.91,217.61,90.08,216.63,87.69Z" style="fill: #18a0aa"/>
          <path d="M216.26,87.68s-1.59-3.11-.74-8.52L220.33,52l-3.46-3.87L213.43,82.8a15.21,15.21,0,0,0,2.1,7.62,1.09,1.09,0,0,0,.89.49C217.19,90.91,217.24,90.07,216.26,87.68Z" style="fill: #2cd4d9"/>
          <ellipse cx="186.94" cy="69.02" rx="11.49" ry="6.64" transform="translate(-9.47 102.72) rotate(-30)" style="fill: #18a0aa"/>
          <path d="M220.33,50.12c1.83,3.18-1.14,8.32-6.64,11.5-4.9,2.83-10.16,3.14-12.54.92a5.13,5.13,0,0,0-1.12-.87,2,2,0,0,0-1.37.17s3.45-8.87,8.39-11.72C212.55,46.95,218.49,46.95,220.33,50.12Z" style="fill: #18a0aa"/>
          <ellipse cx="186.94" cy="68.32" rx="11.49" ry="6.64" transform="translate(-9.11 102.62) rotate(-30)" style="fill: #2cd4d9"/>
          <ellipse cx="210.37" cy="55.02" rx="11.49" ry="6.64" transform="translate(0.67 112.56) rotate(-30)" style="fill: #2cd4d9"/>
          <path d="M197.43,65A5.91,5.91,0,0,1,199,61.54s.9-.77,2.37.32v-1.5l-1.44-2.26a4,4,0,0,1-1.34,2.09,5.37,5.37,0,0,1-4,.48L195.75,64Z" style="fill: #2cd4d9"/>
          <ellipse cx="187.47" cy="68.02" rx="8.73" ry="5.04" transform="translate(-8.9 102.85) rotate(-30)" style="fill: url(#2b3feb0e-b420-417c-a6d0-08075344db33)"/>
          <path d="M195,63.66c-1.39-2.41-5.91-2.41-10.09,0-.28.16-.56.34-.82.51l.45-.28c4.18-2.41,8.69-2.41,10.09,0,1.3,2.25-.58,5.8-4.22,8.22C194.33,69.69,196.38,66,195,63.66Z" style="fill: #18a0aa"/>
          <ellipse cx="210.1" cy="55.02" rx="8.73" ry="5.04" transform="translate(0.64 112.42) rotate(-30)" style="fill: url(#01cb3c66-9855-451e-91fc-12773ff46bb0)"/>
          <path d="M217.66,50.66c-1.39-2.41-5.91-2.41-10.09,0-.28.16-.56.34-.82.51l.45-.28c4.18-2.41,8.69-2.41,10.09,0,1.3,2.25-.58,5.8-4.22,8.22C217,56.69,219,53,217.66,50.66Z" style="fill: #18a0aa"/>
        </g>
        <path id="00cf6457-0be7-4598-ab1a-6b6412391ffb" data-name="&lt;Path&gt;" d="M188.06,103.81l-10.87-5.57a2.09,2.09,0,0,0-.85-.23l-16.57-.79,9-4.8a38.51,38.51,0,0,0,4.58,3c2.16,1,3.73,1.16,4.76.71a1,1,0,0,0,.2-1.74L170,88.19a2.09,2.09,0,0,0-2-.28L155.8,92.59a7.6,7.6,0,0,0-2.54,2c-3,3-5.79,8.43-6.35,11.34-3.06,15.89,3.31,26.57,8.12,30.11a7.11,7.11,0,0,0,9.67-1q.21-.26.41-.54c1.1-1.62,2.06-5.89-.13-8.59-2.82-3.49-4.78-9.1-2.61-9.76l9.82-1.86a24.4,24.4,0,0,0,4.12,1.18,4.56,4.56,0,0,0,2.85-.54.56.56,0,0,0,0-1l-5.35-3.18a2.09,2.09,0,0,0-1-.29L161,109.84l14.32-2.13s2.8.43,9.45.88c2.36.16,3.94-.88,4.58-2.17a.56.56,0,0,0-.44-.79l-12.61-1.88-.26,0-15.06-.34,15.86-1.31s8.33,4.6,11.3,2.7A.57.57,0,0,0,188.06,103.81Z" style="fill: url(#46abfa2d-0195-4706-b965-49d9869227c1)"/>
      </g>
    </g>
  </g>
</svg>
